<svg id="Layer_1" data-name="Layer 1" xmlns="http://www.w3.org/2000/svg" width="56.71503" height="56.50146" viewBox="0 0 56.71503 56.50146" role="img" aria-label="Matyan">
  <defs>
    <style>
      .cls-1 { fill: #B2DFDB; }
      .cls-2 { fill: #009688; }
      .cls-3 { fill: #26A69A; }
      .cls-4 { fill: #00897B; }
      .cls-5 { fill: #00796B; }
    </style>
  </defs>
  <title>Matyan Logo</title>
  <g id="Logo">
    <path class="cls-1" d="M43.8887,2.55052A4.37315,4.37315,0,1,0,37.704,8.73494l10.98239,10.983a4.373,4.373,0,1,0,6.18471-6.18411Z"/>
    <path class="cls-2" d="M11.46467,5.38778a4.37283,4.37283,0,1,0-6.18411,6.18411l39.472,39.472A4.37314,4.37314,0,0,0,50.9373,44.8595Z"/>
    <path class="cls-3" d="M24.98757,1.2809a4.37293,4.37293,0,1,0-6.18411,6.18441l30.44626,30.446a4.37293,4.37293,0,1,0,6.18411-6.18441Z"/>
    <path class="cls-4" d="M7.463,19.01562A4.37314,4.37314,0,1,0,1.27833,25.2L31.29946,55.22055a4.37314,4.37314,0,1,0,6.18471-6.18441Z"/>
    <path class="cls-5" d="M8.62889,37.81033a4.37315,4.37315,0,1,0-6.18471,6.18442l10.98239,10.983a4.373,4.373,0,1,0,6.18471-6.18411Z"/>
  </g>
</svg>
